<mxfile host="5b5b9518-0ae9-43f4-af1f-bd2653f31918" modified="2020-08-11T01:37:18.098Z" agent="5.0 (X11; Linux x86_64) AppleWebKit/537.36 (KHTML, like Gecko) Code/1.47.3 Chrome/78.0.3904.130 Electron/7.3.2 Safari/537.36" etag="6fzIXG__qwyVS-AYSNIe" version="13.1.3">
    <diagram id="6hGFLwfOUW9BJ-s0fimq" name="Page-1">
        <mxGraphModel dx="1074" dy="798" grid="1" gridSize="10" guides="1" tooltips="1" connect="1" arrows="1" fold="1" page="1" pageScale="1" pageWidth="827" pageHeight="1169" math="0" shadow="0">
            <root>
                <mxCell id="0"/>
                <mxCell id="1" parent="0"/>
                <mxCell id="2" value="" style="rounded=0;whiteSpace=wrap;html=1;" vertex="1" parent="1">
                    <mxGeometry x="76" y="180" width="600" height="460" as="geometry"/>
                </mxCell>
                <mxCell id="6" value="" style="strokeWidth=1;shadow=0;dashed=0;align=center;html=1;shape=mxgraph.mockup.containers.browserWindow;rSize=0;strokeColor=#666666;strokeColor2=#008cff;strokeColor3=#c4c4c4;mainText=,;recursiveResize=0;" vertex="1" parent="1">
                    <mxGeometry x="69.75" y="180" width="720.25" height="810" as="geometry"/>
                </mxCell>
                <mxCell id="7" value="Page 1" style="strokeWidth=1;shadow=0;dashed=0;align=center;html=1;shape=mxgraph.mockup.containers.anchor;fontSize=17;fontColor=#666666;align=left;" vertex="1" parent="6">
                    <mxGeometry x="60" y="12" width="110" height="26" as="geometry"/>
                </mxCell>
                <mxCell id="8" value="https://www.draw.io" style="strokeWidth=1;shadow=0;dashed=0;align=center;html=1;shape=mxgraph.mockup.containers.anchor;rSize=0;fontSize=17;fontColor=#666666;align=left;" vertex="1" parent="6">
                    <mxGeometry x="130" y="60" width="250" height="26" as="geometry"/>
                </mxCell>
                <mxCell id="27" value="" style="rounded=0;whiteSpace=wrap;html=1;" vertex="1" parent="6">
                    <mxGeometry x="25.25" y="220" width="664.75" height="190" as="geometry"/>
                </mxCell>
                <mxCell id="48" value="" style="rounded=1;whiteSpace=wrap;html=1;" vertex="1" parent="6">
                    <mxGeometry x="10.25" y="120" width="699.75" height="80" as="geometry"/>
                </mxCell>
                <mxCell id="50" value="" style="ellipse;whiteSpace=wrap;html=1;aspect=fixed;" vertex="1" parent="6">
                    <mxGeometry x="25.25" y="130" width="60" height="60" as="geometry"/>
                </mxCell>
                <mxCell id="51" value="" style="ellipse;whiteSpace=wrap;html=1;" vertex="1" parent="6">
                    <mxGeometry x="610" y="135" width="80" height="50" as="geometry"/>
                </mxCell>
                <mxCell id="54" value="Logo" style="text;html=1;strokeColor=none;fillColor=none;align=center;verticalAlign=middle;whiteSpace=wrap;rounded=0;" vertex="1" parent="6">
                    <mxGeometry x="35.25" y="150" width="40" height="20" as="geometry"/>
                </mxCell>
                <mxCell id="55" value="Dark Mode Toggle" style="text;html=1;strokeColor=none;fillColor=none;align=center;verticalAlign=middle;whiteSpace=wrap;rounded=0;" vertex="1" parent="6">
                    <mxGeometry x="630" y="150" width="40" height="20" as="geometry"/>
                </mxCell>
                <mxCell id="59" value="&lt;h1&gt;Heading&lt;/h1&gt;&lt;p&gt;Lorem ipsum dolor sit amet, consectetur adipisicing elit, sed do eiusmod tempor incididunt ut labore et dolore magna aliqua.&lt;/p&gt;" style="text;html=1;strokeColor=none;fillColor=none;spacing=5;spacingTop=-20;whiteSpace=wrap;overflow=hidden;rounded=0;" vertex="1" parent="6">
                    <mxGeometry x="35.25" y="255" width="344.75" height="120" as="geometry"/>
                </mxCell>
                <mxCell id="60" value="" style="ellipse;whiteSpace=wrap;html=1;aspect=fixed;" vertex="1" parent="6">
                    <mxGeometry x="549.75" y="255" width="120.25" height="120.25" as="geometry"/>
                </mxCell>
                <mxCell id="61" value="Photo" style="text;html=1;strokeColor=none;fillColor=none;align=center;verticalAlign=middle;whiteSpace=wrap;rounded=0;" vertex="1" parent="6">
                    <mxGeometry x="589.88" y="305" width="40" height="20" as="geometry"/>
                </mxCell>
                <mxCell id="62" value="" style="rounded=1;whiteSpace=wrap;html=1;" vertex="1" parent="6">
                    <mxGeometry x="35.25" y="470" width="194.75" height="220" as="geometry"/>
                </mxCell>
                <mxCell id="64" value="" style="rounded=1;whiteSpace=wrap;html=1;" vertex="1" parent="6">
                    <mxGeometry x="490.25" y="470" width="194.75" height="220" as="geometry"/>
                </mxCell>
                <mxCell id="63" value="" style="rounded=1;whiteSpace=wrap;html=1;" vertex="1" parent="6">
                    <mxGeometry x="260.25" y="470" width="194.75" height="220" as="geometry"/>
                </mxCell>
                <mxCell id="65" value="Passion 1" style="text;html=1;strokeColor=none;fillColor=none;align=center;verticalAlign=middle;whiteSpace=wrap;rounded=0;" vertex="1" parent="6">
                    <mxGeometry x="110.25" y="570" width="40" height="20" as="geometry"/>
                </mxCell>
                <mxCell id="66" value="Passion 2" style="text;html=1;strokeColor=none;fillColor=none;align=center;verticalAlign=middle;whiteSpace=wrap;rounded=0;" vertex="1" parent="6">
                    <mxGeometry x="340.13" y="570" width="40" height="20" as="geometry"/>
                </mxCell>
                <mxCell id="67" value="Passion 3" style="text;html=1;strokeColor=none;fillColor=none;align=center;verticalAlign=middle;whiteSpace=wrap;rounded=0;" vertex="1" parent="6">
                    <mxGeometry x="567.62" y="570" width="40" height="20" as="geometry"/>
                </mxCell>
                <mxCell id="109" value="Nav" style="text;html=1;strokeColor=none;fillColor=none;align=center;verticalAlign=middle;whiteSpace=wrap;rounded=0;" vertex="1" parent="6">
                    <mxGeometry x="140.5" y="150" width="40" height="20" as="geometry"/>
                </mxCell>
                <mxCell id="110" value="Nav" style="text;html=1;strokeColor=none;fillColor=none;align=center;verticalAlign=middle;whiteSpace=wrap;rounded=0;" vertex="1" parent="6">
                    <mxGeometry x="110.25" y="150" width="40" height="20" as="geometry"/>
                </mxCell>
                <mxCell id="111" value="Nav" style="text;html=1;strokeColor=none;fillColor=none;align=center;verticalAlign=middle;whiteSpace=wrap;rounded=0;" vertex="1" parent="6">
                    <mxGeometry x="170.25" y="150" width="40" height="20" as="geometry"/>
                </mxCell>
                <mxCell id="69" value="" style="shape=singleArrow;direction=south;whiteSpace=wrap;html=1;" vertex="1" parent="1">
                    <mxGeometry x="390" y="990" width="60" height="100" as="geometry"/>
                </mxCell>
                <mxCell id="70" value="" style="strokeWidth=1;shadow=0;dashed=0;align=center;html=1;shape=mxgraph.mockup.containers.browserWindow;rSize=0;strokeColor=#666666;strokeColor2=#008cff;strokeColor3=#c4c4c4;mainText=,;recursiveResize=0;" vertex="1" parent="1">
                    <mxGeometry x="69.75" y="1090" width="720.25" height="810" as="geometry"/>
                </mxCell>
                <mxCell id="128" value="" style="rounded=0;whiteSpace=wrap;html=1;" vertex="1" parent="70">
                    <mxGeometry x="35.25" y="580" width="644.75" height="210" as="geometry"/>
                </mxCell>
                <mxCell id="71" value="Page 1" style="strokeWidth=1;shadow=0;dashed=0;align=center;html=1;shape=mxgraph.mockup.containers.anchor;fontSize=17;fontColor=#666666;align=left;" vertex="1" parent="70">
                    <mxGeometry x="60" y="12" width="110" height="26" as="geometry"/>
                </mxCell>
                <mxCell id="72" value="https://www.draw.io" style="strokeWidth=1;shadow=0;dashed=0;align=center;html=1;shape=mxgraph.mockup.containers.anchor;rSize=0;fontSize=17;fontColor=#666666;align=left;" vertex="1" parent="70">
                    <mxGeometry x="130" y="60" width="250" height="26" as="geometry"/>
                </mxCell>
                <mxCell id="74" value="" style="rounded=1;whiteSpace=wrap;html=1;" vertex="1" parent="70">
                    <mxGeometry x="10.25" y="120" width="699.75" height="80" as="geometry"/>
                </mxCell>
                <mxCell id="75" value="" style="ellipse;whiteSpace=wrap;html=1;aspect=fixed;" vertex="1" parent="70">
                    <mxGeometry x="25.25" y="130" width="60" height="60" as="geometry"/>
                </mxCell>
                <mxCell id="76" value="" style="ellipse;whiteSpace=wrap;html=1;" vertex="1" parent="70">
                    <mxGeometry x="610" y="135" width="80" height="50" as="geometry"/>
                </mxCell>
                <mxCell id="77" value="Logo" style="text;html=1;strokeColor=none;fillColor=none;align=center;verticalAlign=middle;whiteSpace=wrap;rounded=0;" vertex="1" parent="70">
                    <mxGeometry x="35.25" y="150" width="40" height="20" as="geometry"/>
                </mxCell>
                <mxCell id="78" value="Dark Mode Toggle" style="text;html=1;strokeColor=none;fillColor=none;align=center;verticalAlign=middle;whiteSpace=wrap;rounded=0;" vertex="1" parent="70">
                    <mxGeometry x="630" y="150" width="40" height="20" as="geometry"/>
                </mxCell>
                <mxCell id="82" value="" style="rounded=1;whiteSpace=wrap;html=1;" vertex="1" parent="70">
                    <mxGeometry x="15.13" y="240" width="690" height="300" as="geometry"/>
                </mxCell>
                <mxCell id="85" value="Passion 1" style="text;html=1;strokeColor=none;fillColor=none;align=center;verticalAlign=middle;whiteSpace=wrap;rounded=0;" vertex="1" parent="70">
                    <mxGeometry x="317.25" y="350" width="85.75" height="80" as="geometry"/>
                </mxCell>
                <mxCell id="106" value="Nav" style="text;html=1;strokeColor=none;fillColor=none;align=center;verticalAlign=middle;whiteSpace=wrap;rounded=0;" vertex="1" parent="70">
                    <mxGeometry x="130" y="150" width="40" height="20" as="geometry"/>
                </mxCell>
                <mxCell id="107" value="Nav" style="text;html=1;strokeColor=none;fillColor=none;align=center;verticalAlign=middle;whiteSpace=wrap;rounded=0;" vertex="1" parent="70">
                    <mxGeometry x="160.25" y="150" width="40" height="20" as="geometry"/>
                </mxCell>
                <mxCell id="108" value="Nav" style="text;html=1;strokeColor=none;fillColor=none;align=center;verticalAlign=middle;whiteSpace=wrap;rounded=0;" vertex="1" parent="70">
                    <mxGeometry x="190" y="150" width="40" height="20" as="geometry"/>
                </mxCell>
                <mxCell id="129" value="Photo" style="html=1;strokeColor=none;fillColor=#0079D6;labelPosition=center;verticalLabelPosition=middle;verticalAlign=top;align=center;fontSize=12;outlineConnect=0;spacingTop=-6;fontColor=#FFFFFF;shape=mxgraph.sitemap.photo;" vertex="1" parent="70">
                    <mxGeometry x="60" y="594" width="120" height="70" as="geometry"/>
                </mxCell>
                <mxCell id="130" value="Photo" style="html=1;strokeColor=none;fillColor=#0079D6;labelPosition=center;verticalLabelPosition=middle;verticalAlign=top;align=center;fontSize=12;outlineConnect=0;spacingTop=-6;fontColor=#FFFFFF;shape=mxgraph.sitemap.photo;" vertex="1" parent="70">
                    <mxGeometry x="224.25" y="594" width="120" height="70" as="geometry"/>
                </mxCell>
                <mxCell id="131" value="Photo" style="html=1;strokeColor=none;fillColor=#0079D6;labelPosition=center;verticalLabelPosition=middle;verticalAlign=top;align=center;fontSize=12;outlineConnect=0;spacingTop=-6;fontColor=#FFFFFF;shape=mxgraph.sitemap.photo;" vertex="1" parent="70">
                    <mxGeometry x="380" y="594" width="120" height="70" as="geometry"/>
                </mxCell>
                <mxCell id="132" value="Photo" style="html=1;strokeColor=none;fillColor=#0079D6;labelPosition=center;verticalLabelPosition=middle;verticalAlign=top;align=center;fontSize=12;outlineConnect=0;spacingTop=-6;fontColor=#FFFFFF;shape=mxgraph.sitemap.photo;" vertex="1" parent="70">
                    <mxGeometry x="530.25" y="594" width="120" height="70" as="geometry"/>
                </mxCell>
                <mxCell id="133" value="Photo" style="html=1;strokeColor=none;fillColor=#0079D6;labelPosition=center;verticalLabelPosition=middle;verticalAlign=top;align=center;fontSize=12;outlineConnect=0;spacingTop=-6;fontColor=#FFFFFF;shape=mxgraph.sitemap.photo;" vertex="1" parent="70">
                    <mxGeometry x="62.5" y="700" width="120" height="70" as="geometry"/>
                </mxCell>
                <mxCell id="134" value="Photo" style="html=1;strokeColor=none;fillColor=#0079D6;labelPosition=center;verticalLabelPosition=middle;verticalAlign=top;align=center;fontSize=12;outlineConnect=0;spacingTop=-6;fontColor=#FFFFFF;shape=mxgraph.sitemap.photo;" vertex="1" parent="70">
                    <mxGeometry x="226.75" y="700" width="120" height="70" as="geometry"/>
                </mxCell>
                <mxCell id="135" value="Photo" style="html=1;strokeColor=none;fillColor=#0079D6;labelPosition=center;verticalLabelPosition=middle;verticalAlign=top;align=center;fontSize=12;outlineConnect=0;spacingTop=-6;fontColor=#FFFFFF;shape=mxgraph.sitemap.photo;" vertex="1" parent="70">
                    <mxGeometry x="382.5" y="700" width="120" height="70" as="geometry"/>
                </mxCell>
                <mxCell id="136" value="Photo" style="html=1;strokeColor=none;fillColor=#0079D6;labelPosition=center;verticalLabelPosition=middle;verticalAlign=top;align=center;fontSize=12;outlineConnect=0;spacingTop=-6;fontColor=#FFFFFF;shape=mxgraph.sitemap.photo;" vertex="1" parent="70">
                    <mxGeometry x="532.75" y="700" width="120" height="70" as="geometry"/>
                </mxCell>
                <mxCell id="137" value="" style="shape=singleArrow;direction=south;whiteSpace=wrap;html=1;" vertex="1" parent="1">
                    <mxGeometry x="399.88" y="1900" width="60" height="100" as="geometry"/>
                </mxCell>
                <mxCell id="138" value="" style="strokeWidth=1;shadow=0;dashed=0;align=center;html=1;shape=mxgraph.mockup.containers.browserWindow;rSize=0;strokeColor=#666666;strokeColor2=#008cff;strokeColor3=#c4c4c4;mainText=,;recursiveResize=0;" vertex="1" parent="1">
                    <mxGeometry x="67" y="2010" width="760" height="910" as="geometry"/>
                </mxCell>
                <mxCell id="140" value="Page 1" style="strokeWidth=1;shadow=0;dashed=0;align=center;html=1;shape=mxgraph.mockup.containers.anchor;fontSize=17;fontColor=#666666;align=left;" vertex="1" parent="138">
                    <mxGeometry x="60" y="12" width="110" height="26" as="geometry"/>
                </mxCell>
                <mxCell id="141" value="https://www.draw.io" style="strokeWidth=1;shadow=0;dashed=0;align=center;html=1;shape=mxgraph.mockup.containers.anchor;rSize=0;fontSize=17;fontColor=#666666;align=left;" vertex="1" parent="138">
                    <mxGeometry x="130" y="60" width="250" height="26" as="geometry"/>
                </mxCell>
                <mxCell id="142" value="" style="rounded=1;whiteSpace=wrap;html=1;" vertex="1" parent="138">
                    <mxGeometry x="10.25" y="120" width="699.75" height="80" as="geometry"/>
                </mxCell>
                <mxCell id="143" value="" style="ellipse;whiteSpace=wrap;html=1;aspect=fixed;" vertex="1" parent="138">
                    <mxGeometry x="25.25" y="130" width="60" height="60" as="geometry"/>
                </mxCell>
                <mxCell id="144" value="" style="ellipse;whiteSpace=wrap;html=1;" vertex="1" parent="138">
                    <mxGeometry x="610" y="135" width="80" height="50" as="geometry"/>
                </mxCell>
                <mxCell id="145" value="Logo" style="text;html=1;strokeColor=none;fillColor=none;align=center;verticalAlign=middle;whiteSpace=wrap;rounded=0;" vertex="1" parent="138">
                    <mxGeometry x="35.25" y="150" width="40" height="20" as="geometry"/>
                </mxCell>
                <mxCell id="146" value="Dark Mode Toggle" style="text;html=1;strokeColor=none;fillColor=none;align=center;verticalAlign=middle;whiteSpace=wrap;rounded=0;" vertex="1" parent="138">
                    <mxGeometry x="630" y="150" width="40" height="20" as="geometry"/>
                </mxCell>
                <mxCell id="147" value="" style="rounded=1;whiteSpace=wrap;html=1;" vertex="1" parent="138">
                    <mxGeometry x="15.13" y="240" width="690" height="300" as="geometry"/>
                </mxCell>
                <mxCell id="148" value="Passion 2" style="text;html=1;strokeColor=none;fillColor=none;align=center;verticalAlign=middle;whiteSpace=wrap;rounded=0;" vertex="1" parent="138">
                    <mxGeometry x="317.25" y="350" width="85.75" height="80" as="geometry"/>
                </mxCell>
                <mxCell id="149" value="Nav" style="text;html=1;strokeColor=none;fillColor=none;align=center;verticalAlign=middle;whiteSpace=wrap;rounded=0;" vertex="1" parent="138">
                    <mxGeometry x="130" y="150" width="40" height="20" as="geometry"/>
                </mxCell>
                <mxCell id="150" value="Nav" style="text;html=1;strokeColor=none;fillColor=none;align=center;verticalAlign=middle;whiteSpace=wrap;rounded=0;" vertex="1" parent="138">
                    <mxGeometry x="160.25" y="150" width="40" height="20" as="geometry"/>
                </mxCell>
                <mxCell id="151" value="Nav" style="text;html=1;strokeColor=none;fillColor=none;align=center;verticalAlign=middle;whiteSpace=wrap;rounded=0;" vertex="1" parent="138">
                    <mxGeometry x="190" y="150" width="40" height="20" as="geometry"/>
                </mxCell>
                <mxCell id="160" value="" style="rounded=0;whiteSpace=wrap;html=1;" vertex="1" parent="138">
                    <mxGeometry x="20.25" y="560" width="459.75" height="240" as="geometry"/>
                </mxCell>
                <mxCell id="161" value="Music API Tie In" style="text;html=1;strokeColor=none;fillColor=none;align=center;verticalAlign=middle;whiteSpace=wrap;rounded=0;" vertex="1" parent="138">
                    <mxGeometry x="190" y="660" width="130" height="40" as="geometry"/>
                </mxCell>
                <mxCell id="162" value="" style="rounded=0;whiteSpace=wrap;html=1;rotation=90;" vertex="1" parent="138">
                    <mxGeometry x="430" y="640" width="330" height="170" as="geometry"/>
                </mxCell>
                <mxCell id="163" value="Discogs AP I to show my current collection" style="text;html=1;strokeColor=none;fillColor=none;align=center;verticalAlign=middle;whiteSpace=wrap;rounded=0;" vertex="1" parent="138">
                    <mxGeometry x="575" y="680" width="40" height="20" as="geometry"/>
                </mxCell>
                <mxCell id="164" value="" style="shape=singleArrow;direction=south;whiteSpace=wrap;html=1;" vertex="1" parent="1">
                    <mxGeometry x="384" y="2920" width="60" height="100" as="geometry"/>
                </mxCell>
                <mxCell id="165" value="" style="strokeWidth=1;shadow=0;dashed=0;align=center;html=1;shape=mxgraph.mockup.containers.browserWindow;rSize=0;strokeColor=#666666;strokeColor2=#008cff;strokeColor3=#c4c4c4;mainText=,;recursiveResize=0;" vertex="1" parent="1">
                    <mxGeometry x="67" y="3020" width="760" height="1070" as="geometry"/>
                </mxCell>
                <mxCell id="166" value="Page 1" style="strokeWidth=1;shadow=0;dashed=0;align=center;html=1;shape=mxgraph.mockup.containers.anchor;fontSize=17;fontColor=#666666;align=left;" vertex="1" parent="165">
                    <mxGeometry x="60" y="12" width="110" height="26" as="geometry"/>
                </mxCell>
                <mxCell id="167" value="https://www.draw.io" style="strokeWidth=1;shadow=0;dashed=0;align=center;html=1;shape=mxgraph.mockup.containers.anchor;rSize=0;fontSize=17;fontColor=#666666;align=left;" vertex="1" parent="165">
                    <mxGeometry x="130" y="60" width="250" height="26" as="geometry"/>
                </mxCell>
                <mxCell id="168" value="" style="rounded=1;whiteSpace=wrap;html=1;" vertex="1" parent="165">
                    <mxGeometry x="10.25" y="120" width="699.75" height="80" as="geometry"/>
                </mxCell>
                <mxCell id="169" value="" style="ellipse;whiteSpace=wrap;html=1;aspect=fixed;" vertex="1" parent="165">
                    <mxGeometry x="25.25" y="130" width="60" height="60" as="geometry"/>
                </mxCell>
                <mxCell id="170" value="" style="ellipse;whiteSpace=wrap;html=1;" vertex="1" parent="165">
                    <mxGeometry x="610" y="135" width="80" height="50" as="geometry"/>
                </mxCell>
                <mxCell id="171" value="Logo" style="text;html=1;strokeColor=none;fillColor=none;align=center;verticalAlign=middle;whiteSpace=wrap;rounded=0;" vertex="1" parent="165">
                    <mxGeometry x="35.25" y="150" width="40" height="20" as="geometry"/>
                </mxCell>
                <mxCell id="172" value="Dark Mode Toggle" style="text;html=1;strokeColor=none;fillColor=none;align=center;verticalAlign=middle;whiteSpace=wrap;rounded=0;" vertex="1" parent="165">
                    <mxGeometry x="630" y="150" width="40" height="20" as="geometry"/>
                </mxCell>
                <mxCell id="173" value="" style="rounded=1;whiteSpace=wrap;html=1;" vertex="1" parent="165">
                    <mxGeometry x="15.13" y="240" width="690" height="300" as="geometry"/>
                </mxCell>
                <mxCell id="174" value="Passion 3" style="text;html=1;strokeColor=none;fillColor=none;align=center;verticalAlign=middle;whiteSpace=wrap;rounded=0;" vertex="1" parent="165">
                    <mxGeometry x="317.25" y="350" width="85.75" height="80" as="geometry"/>
                </mxCell>
                <mxCell id="175" value="Nav" style="text;html=1;strokeColor=none;fillColor=none;align=center;verticalAlign=middle;whiteSpace=wrap;rounded=0;" vertex="1" parent="165">
                    <mxGeometry x="130" y="150" width="40" height="20" as="geometry"/>
                </mxCell>
                <mxCell id="176" value="Nav" style="text;html=1;strokeColor=none;fillColor=none;align=center;verticalAlign=middle;whiteSpace=wrap;rounded=0;" vertex="1" parent="165">
                    <mxGeometry x="160.25" y="150" width="40" height="20" as="geometry"/>
                </mxCell>
                <mxCell id="177" value="Nav" style="text;html=1;strokeColor=none;fillColor=none;align=center;verticalAlign=middle;whiteSpace=wrap;rounded=0;" vertex="1" parent="165">
                    <mxGeometry x="190" y="150" width="40" height="20" as="geometry"/>
                </mxCell>
                <mxCell id="182" value="&lt;h1&gt;Heading&lt;/h1&gt;&lt;p&gt;Lorem ipsum dolor sit amet, consectetur adipisicing elit, sed do eiusmod tempor incididunt ut labore et dolore magna aliqua.&lt;/p&gt;" style="text;html=1;strokeColor=none;fillColor=none;spacing=5;spacingTop=-20;whiteSpace=wrap;overflow=hidden;rounded=0;" vertex="1" parent="165">
                    <mxGeometry x="17.759999999999998" y="380" width="684.75" height="140" as="geometry"/>
                </mxCell>
                <mxCell id="185" value="Veteran Services Links" style="fillColor=none;strokeColor=none;html=1;fontColor=#0057D8;align=left;fontSize=12" vertex="1" parent="165">
                    <mxGeometry x="64.99999999999999" y="500" width="125" height="33" as="geometry"/>
                </mxCell>
                <mxCell id="186" value="" style="html=1;shadow=0;dashed=0;shape=mxgraph.atlassian.checkbox;fillColor=#008465;strokeColor=none;html=1" vertex="1" parent="165">
                    <mxGeometry x="39.999999999999986" y="509" width="14" height="14" as="geometry"/>
                </mxCell>
                <mxCell id="187" value="" style="rounded=0;whiteSpace=wrap;html=1;" vertex="1" parent="165">
                    <mxGeometry x="30" y="560" width="657.5" height="370" as="geometry"/>
                </mxCell>
                <mxCell id="188" value="Explanation&amp;nbsp; of BattleBuddy.io" style="text;html=1;strokeColor=none;fillColor=none;align=center;verticalAlign=middle;whiteSpace=wrap;rounded=0;" vertex="1" parent="165">
                    <mxGeometry x="300.94" y="702.5" width="122.63" height="85" as="geometry"/>
                </mxCell>
                <mxCell id="189" value="" style="verticalLabelPosition=bottom;html=1;verticalAlign=top;align=center;strokeColor=none;fillColor=#00BEF2;shape=mxgraph.azure.github_code;pointerEvents=1;" vertex="1" parent="165">
                    <mxGeometry x="465.13" y="720" width="50" height="50" as="geometry"/>
                </mxCell>
                <mxCell id="190" value="" style="aspect=fixed;perimeter=ellipsePerimeter;html=1;align=center;shadow=0;dashed=0;spacingTop=3;image;image=img/lib/active_directory/internet_globe.svg;" vertex="1" parent="165">
                    <mxGeometry x="205.13" y="720" width="50" height="50" as="geometry"/>
                </mxCell>
            </root>
        </mxGraphModel>
    </diagram>
</mxfile>